<?xml version="1.0" encoding="utf-8"?>
<!-- Generator: Adobe Illustrator 27.0.1, SVG Export Plug-In . SVG Version: 6.00 Build 0)  -->
<svg version="1.1" id="Layer_1" xmlns="http://www.w3.org/2000/svg" xmlns:xlink="http://www.w3.org/1999/xlink" x="0px" y="0px"
	 viewBox="265 300 555 475" xml:space="preserve">
<style type="text/css">
	.st0{fill:#221F1F;}
</style>
<g>
	<g>
		<g>
			<path class="st0" d="M368.8,403.7c0,26.6-19.8,46.5-44,46.5c-15.9,0-27-8.9-33.1-20.4l-4,18H276v-127c0-4.5-1.7-5.3-3.2-5.5V315
				h20.8v60.9c6.4-9.8,18-17.4,32.3-17.4C349.9,358.5,368.8,377.4,368.8,403.7z M351,404.2c0-18.9-13.2-31.4-28.7-31.4
				s-28.7,12.7-28.7,31.4c0,18.7,13.2,31.6,28.7,31.6S351,423.1,351,404.2z"/>
			<path class="st0" d="M462.3,407.1H399c0.9,17.4,9.8,29.9,27.6,29.9c14.2,0,26.3-9.1,32.7-16.6h0.2v16.6
				c-7.6,7-19.7,13.2-35.2,13.2c-27.2,0-42.7-19.1-42.7-44.8c0-26.6,17.2-46.9,42.5-46.9c24.2,0,38.6,18.5,38.6,43.5
				C462.7,404.6,462.5,405.8,462.3,407.1z M399.8,394.8h45.7c-1.1-14.7-10-23.6-21.9-23.6C411.1,371.2,402.4,380.4,399.8,394.8z"/>
		</g>
	</g>
	<g>
		<path class="st0" d="M418.8,594.2v0.2h-19.1v-9.8c-5.3,7.2-13.4,12.3-24.6,12.3c-16.8,0-28.5-8.1-28.5-24
			c0-16.3,11.2-25.3,29.5-27l7.7-0.8c9.8-0.9,15.5-5.7,15.5-13.2c0-10.2-8.5-13.2-18-13.2c-11.3,0-21.7,5.7-28.9,11.9h-0.4v-16.3
			c7.9-5.3,19.5-9.4,31.6-9.4c19.3,0,32.5,8.7,32.5,27.8v56.1C416.2,593.2,417.3,594,418.8,594.2z M399.3,551.9
			c-1.7,1.9-5.1,4.3-12.1,4.7l-5.7,0.4c-13,0.9-18.5,6.2-18.5,14.6c0,9.5,7.7,12.7,15.9,12.7c14.4,0,20.4-10.6,20.4-19.8V551.9z"/>
		<path class="st0" d="M436.9,594.2c1.5-0.2,2.6-0.9,2.6-5.5v-75.4c0-4.5-1.1-5.3-2.6-5.5v-0.2h20.2v17c3-7.9,10.8-19.5,24.6-19.5
			c2.8,0,6,0.4,10.2,1.7v18c-3.6-2.1-8.3-3.8-13.4-3.8c-12.3,0-21.4,11.5-21.4,28.2v39.5c0,4.5,1.1,5.3,2.6,5.5v0.2h-22.9V594.2z"/>
		<path class="st0" d="M530.7,521.4v38.9c0,15.9,7.9,21.7,18,21.7c5.1,0,10.6-2.1,13.6-4h0.2v14.4c-4.7,2.3-11.3,4-18.1,4
			c-18,0-31.2-10.4-31.2-33.8v-41.2H499v-4.7l14.2-7.9v-44h17.6v42.9h31.8v13.8H530.7z"/>
	</g>
	<g>
		<path class="st0" d="M401.7,758v-15.9h0.2c6.6,6.4,15.5,10.4,22.9,10.4c7.7,0,16.1-3.8,16.1-12.9c0-18-37.4-15.7-37.4-41.8
			c0-16.3,14-24.8,29.3-24.8c7.7,0,15.3,2.5,21.4,6.6v15.5h-0.2c-4.7-5.1-11.7-9.6-19.8-9.6c-7.6,0-13.6,4-13.6,10.8
			c0,17,38.2,15.7,38.2,42.1c0,17.2-15.1,26.5-32.9,26.5C416.6,765,408.5,762.1,401.7,758z"/>
		<path class="st0" d="M474.1,762.3c1.5-0.2,2.6-0.9,2.6-5.5V636.1c0-5.1-1.1-5.9-2.6-6v-0.2h20.2V689c4.5-6.8,14.6-15.7,30.1-15.7
			c21.4,0,31.8,14.4,31.8,39.7v43.8c0,4.5,1.1,5.3,2.6,5.5v0.2h-22.9v-0.2c1.5-0.2,2.6-0.9,2.6-5.5v-42.3c0-15.9-5.7-27-20.6-27
			c-14.4,0-23.6,10-23.6,25.9v43.5c0,4.5,1.1,5.3,2.6,5.5v0.2h-22.9V762.3z"/>
		<path class="st0" d="M646.3,762.3v0.2h-19.1v-9.8c-5.3,7.2-13.4,12.3-24.6,12.3c-16.8,0-28.5-8.1-28.5-24
			c0-16.3,11.2-25.3,29.5-27l7.7-0.8c9.8-0.9,15.5-5.7,15.5-13.2c0-10.2-8.5-13.2-18-13.2c-11.3,0-21.7,5.7-28.9,11.9h-0.4v-16.3
			c7.9-5.3,19.5-9.4,31.6-9.4c19.3,0,32.5,8.7,32.5,27.8v56.1C643.6,761.4,644.7,762.1,646.3,762.3z M626.8,720
			c-1.7,1.9-5.1,4.3-12.1,4.7l-5.7,0.4c-13,0.9-18.5,6.2-18.5,14.6c0,9.5,7.7,12.7,15.9,12.7c14.4,0,20.4-10.6,20.4-19.8V720z"/>
		<path class="st0" d="M664.3,762.3c1.5-0.2,2.6-0.9,2.6-5.5v-75.4c0-4.5-1.1-5.3-2.6-5.5v-0.2h20.2v17c3-7.9,10.8-19.5,24.6-19.5
			c2.8,0,6,0.4,10.2,1.7v18c-3.6-2.1-8.3-3.8-13.4-3.8c-12.3,0-21.4,11.5-21.4,28.2v39.5c0,4.5,1.1,5.3,2.6,5.5v0.2h-22.9V762.3z"/>
		<path class="st0" d="M806.8,721.9h-63.3c0.9,17.4,9.8,29.9,27.6,29.9c14.2,0,26.3-9.1,32.7-16.6h0.2v16.6
			c-7.6,7-19.7,13.2-35.2,13.2c-27.2,0-42.7-19.1-42.7-44.8c0-26.6,17.2-46.9,42.5-46.9c24.2,0,38.6,18.5,38.6,43.5
			C807.2,719.4,807,720.6,806.8,721.9z M744.3,709.6H790c-1.1-14.7-10-23.6-21.9-23.6C755.6,686,746.9,695.2,744.3,709.6z"/>
	</g>
</g>
</svg>
