<svg xmlns="http://www.w3.org/2000/svg" viewBox="0 0 32 32">
  <rect width="32" height="32" rx="4" fill="#14171c"/>
  <svg x="4" y="2" width="24" height="25" viewBox="272 313 98 140">
    <path fill="#ffffff" d="M368.8,403.7c0,26.6-19.8,46.5-44,46.5c-15.9,0-27-8.9-33.1-20.4l-4,18H276v-127c0-4.5-1.7-5.3-3.2-5.5V315
      h20.8v60.9c6.4-9.8,18-17.4,32.3-17.4C349.9,358.5,368.8,377.4,368.8,403.7z M351,404.2c0-18.9-13.2-31.4-28.7-31.4
      s-28.7,12.7-28.7,31.4c0,18.7,13.2,31.6,28.7,31.6S351,423.1,351,404.2z"/>
  </svg>
  <rect x="3" y="28" width="26" height="2" rx="1" fill="#D4A017"/>
</svg>
